<svg xmlns="http://www.w3.org/2000/svg" xmlns:xlink="http://www.w3.org/1999/xlink" width="500" zoomAndPan="magnify" viewBox="0 0 375 374.999991" height="500" preserveAspectRatio="xMidYMid meet" version="1.0"><defs><g/></defs><g fill="#372d2d" fill-opacity="1"><g transform="translate(60.052875, 333.850063)"><g><path d="M 127.464844 4.738281 C 180.535156 4.738281 232.183594 -25.113281 232.183594 -88.609375 C 232.183594 -139.308594 212.28125 -172.953125 158.265625 -189.0625 L 116.566406 -201.382812 C 107.089844 -204.226562 95.714844 -211.335938 95.714844 -226.496094 C 95.714844 -244.976562 111.828125 -251.136719 127.464844 -251.136719 C 148.3125 -251.136719 162.054688 -245.453125 171.058594 -242.132812 C 182.429688 -237.871094 192.378906 -237.871094 199.960938 -248.292969 L 219.863281 -275.777344 C 225.550781 -283.359375 222.707031 -297.101562 214.652344 -302.3125 C 194.75 -314.160156 166.320312 -321.738281 134.097656 -321.738281 C 78.183594 -321.738281 23.691406 -293.785156 23.691406 -226.972656 C 23.691406 -182.429688 47.382812 -146.890625 94.769531 -132.675781 L 136.46875 -120.355469 C 149.734375 -116.566406 160.632812 -107.5625 160.632812 -91.925781 C 160.632812 -76.289062 146.417969 -65.863281 125.570312 -65.863281 C 108.984375 -65.863281 94.769531 -72.972656 85.292969 -79.132812 C 70.128906 -89.082031 63.019531 -88.136719 50.703125 -79.605469 L 26.535156 -63.019531 C 18.953125 -57.808594 17.53125 -43.121094 23.21875 -36.960938 C 43.121094 -14.6875 76.761719 4.738281 127.464844 4.738281 Z M 127.464844 4.738281 "/></g></g></g><g fill="#b4332b" fill-opacity="1"><g transform="translate(289.343951, 353.999977)"><g><path d="M 45.496094 -55.292969 L 34.695312 -32.398438 L 23.898438 -55.292969 C 18.597656 -55.695312 9 -54.894531 4 -53.09375 C 4.699219 -33.796875 5 -16 5 0.398438 C 11.898438 1.398438 17.898438 0.601562 20.199219 -0.398438 L 20.199219 -32.496094 L 28.996094 -13.898438 C 32.597656 -13 36.195312 -13 39.796875 -13.898438 L 48.695312 -32.695312 C 48.796875 -22.296875 48.894531 -6.597656 48.796875 0.601562 C 55.695312 1.601562 61.695312 0.800781 63.992188 -0.199219 L 63.992188 -53.09375 C 58.992188 -54.894531 50.792969 -55.695312 45.496094 -55.292969 Z M 45.496094 -55.292969 "/></g></g></g></svg>